<svg width="123" height="123" viewBox="0 0 123 123" fill="none" xmlns="http://www.w3.org/2000/svg">
<circle cx="61.5" cy="61.5" r="61.5" fill="#F97316"/>
<path d="M93.5101 38.6848C92.7208 37.9022 91.7838 37.2814 90.7525 36.8579C89.7212 36.4344 88.6158 36.2164 87.4995 36.2164C86.3832 36.2164 85.2779 36.4344 84.2466 36.8579C83.2153 37.2814 82.2782 37.9022 81.4889 38.6848C80.7343 39.4337 80.1287 40.3168 79.7039 41.288L69.2157 38.453C69.4311 36.7125 69.0935 34.9486 68.2498 33.4074C67.4061 31.8661 66.0984 30.6241 64.5089 29.8546C62.9194 29.0851 61.1274 28.8264 59.3826 29.1145C57.6378 29.4026 56.0271 30.2232 54.775 31.4619C53.3847 32.841 52.5198 34.6554 52.3277 36.5959C52.1356 38.5364 52.6283 40.4829 53.7216 42.1036L41.9402 52.6158C40.3109 51.2699 38.2329 50.5765 36.1143 50.6717C33.9957 50.767 31.9895 51.6439 30.4897 53.1304C28.8956 54.7108 28 56.8543 28 59.0893C28 61.3243 28.8956 63.4677 30.4897 65.0481C32.0838 66.6285 34.2459 67.5163 36.5003 67.5163C38.7547 67.5163 40.9168 66.6285 42.5109 65.0481L42.5656 64.9909L65.4272 81.6125C64.6358 83.0856 64.3036 84.7586 64.4726 86.4192C64.6416 88.0797 65.3041 89.6532 66.3763 90.94C67.4485 92.2268 68.882 93.1689 70.495 93.6469C72.108 94.125 73.8278 94.1174 75.4365 93.6251C77.0451 93.1329 78.4701 92.1781 79.5307 90.8819C80.5912 89.5857 81.2397 88.0065 81.3937 86.3445C81.5478 84.6824 81.2005 83.0125 80.396 81.5464C79.5915 80.0803 78.3659 78.884 76.8747 78.1094L85.8451 52.9047C87.2152 53.175 88.6313 53.1063 89.9683 52.7047C91.3052 52.3031 92.5217 51.5811 93.5101 50.6024C94.2995 49.8199 94.9257 48.891 95.3529 47.8685C95.7801 46.8461 96 45.7503 96 44.6436C96 43.5369 95.7801 42.4411 95.3529 41.4187C94.9257 40.3963 94.2995 39.4673 93.5101 38.6848ZM56.4932 33.1653C57.3422 32.3234 58.424 31.7499 59.6018 31.5175C60.7796 31.2852 62.0004 31.4042 63.1099 31.8598C64.2194 32.3153 65.1677 33.0867 65.8349 34.0766C66.5021 35.0665 66.8583 36.2303 66.8583 37.4208C66.8583 38.6113 66.5021 39.7751 65.8349 40.765C65.1677 41.7548 64.2194 42.5263 63.1099 42.9818C62.0004 43.4373 60.7796 43.5564 59.6018 43.324C58.424 43.0916 57.3422 42.5182 56.4932 41.6762C55.355 40.5475 54.7156 39.0168 54.7156 37.4208C54.7156 35.8248 55.355 34.2941 56.4932 33.1653ZM32.2079 63.3447C31.0697 62.216 30.4303 60.6853 30.4303 59.0893C30.4303 57.4932 31.0697 55.9626 32.2079 54.8338C33.0569 53.9919 34.1387 53.4184 35.3165 53.186C36.4942 52.9536 37.7151 53.0727 38.8246 53.5282C39.9341 53.9838 40.8824 54.7552 41.5496 55.7451C42.2168 56.735 42.5729 57.8987 42.5729 59.0893C42.5729 60.2798 42.2168 61.4436 41.5496 62.4334C40.8824 63.4233 39.9341 64.1948 38.8246 64.6503C37.7151 65.1058 36.4942 65.2249 35.3165 64.9925C34.1387 64.7601 33.0569 64.1867 32.2079 63.3447ZM77.2207 89.8284C76.0757 90.9248 74.542 91.5315 72.9502 91.5178C71.3583 91.5041 69.8355 90.8711 68.7098 89.7551C67.5842 88.6391 66.9456 87.1295 66.9318 85.5513C66.918 83.9731 67.5299 82.4527 68.6359 81.3175C69.7809 80.2211 71.3146 79.6144 72.9065 79.6281C74.4983 79.6419 76.0211 80.2749 77.1468 81.3908C78.2725 82.5068 78.911 84.0165 78.9248 85.5946C78.9386 87.1728 78.3267 88.6932 77.2207 89.8284ZM74.5828 77.3119C73.2127 77.0416 71.7965 77.1103 70.4596 77.5119C69.1226 77.9134 67.9061 78.6355 66.9177 79.6141L66.8631 79.6713L44.0014 63.0498C44.7218 61.704 45.0615 60.19 44.9846 58.6684C44.9076 57.1467 44.4169 55.6741 43.5643 54.4065L55.3457 43.8942C56.3602 44.7318 57.5574 45.3236 58.8427 45.6227C60.1279 45.9218 61.4657 45.9199 62.7501 45.6174C64.0345 45.3148 65.2302 44.7198 66.2423 43.8795C67.2545 43.0393 68.0553 41.9768 68.5812 40.7764L79.0695 43.6113C78.8572 45.3114 79.1726 47.0353 79.9736 48.5531C80.7747 50.071 82.0233 51.3108 83.5532 52.1072L74.5828 77.3119ZM91.792 48.8991C90.6469 49.9955 89.1133 50.6022 87.5214 50.5884C85.9295 50.5747 84.4067 49.9417 83.281 48.8257C82.1554 47.7098 81.5169 46.2001 81.503 44.6219C81.4892 43.0438 82.1011 41.5234 83.2071 40.3882C84.3522 39.2917 85.8858 38.6851 87.4777 38.6988C89.0696 38.7125 90.5923 39.3455 91.718 40.4615C92.8437 41.5775 93.4822 43.0871 93.496 44.6653C93.5098 46.2434 92.8979 47.7639 91.792 48.8991Z" fill="#FFF9F9"/>
</svg>
